<?xml version="1.0" encoding="UTF-8"?>
<svg 
  id="Capa_3" 
  data-name="Capa 3" 
  xmlns="http://www.w3.org/2000/svg" 
  viewBox="0 0 1520.67 760.67"
  width="100%" 
  height="100%" 
  preserveAspectRatio="xMidYMid meet"
>
  <g>
    <path d="M206.58,608.78c0,4.45-.84,8.62-2.52,12.53-1.68,3.9-3.96,7.29-6.83,10.17-2.87,2.87-6.26,5.15-10.17,6.83-3.9,1.68-8.08,2.52-12.53,2.52h-89.31c-4.34,0-8.46-.84-12.36-2.52-3.9-1.68-7.29-3.96-10.17-6.83-2.87-2.87-5.15-6.26-6.83-10.17-1.68-3.9-2.52-8.08-2.52-12.53v-207.9h31.88v97.28c.22-4.23,1.19-8.22,2.93-11.96,1.73-3.74,4.04-6.99,6.91-9.76,2.87-2.77,6.21-4.94,10-6.51,3.8-1.57,7.86-2.36,12.2-2.36h57.26c4.45,0,8.62.84,12.53,2.52,3.9,1.68,7.29,3.96,10.17,6.83,2.87,2.87,5.15,6.26,6.83,10.17,1.68,3.9,2.52,8.08,2.52,12.53v109.15ZM85.22,499.63v109.15h89.31v-109.15h-89.31Z" fill="#2566bc" stroke-width="0"/>
    <path d="M259.93,400.88h35.3v33.35h-35.3v-33.35ZM293.61,467.58v173.25h-32.05v-173.25h32.05Z" fill="#2566bc" stroke-width="0"/>
    <path d="M338.5,467.58h42.3v-53.36h32.05v53.36h56.94v32.05h-56.94v109.15h56.94v32.05h-56.94c-4.34,0-8.46-.84-12.36-2.52-3.9-1.68-7.32-3.96-10.25-6.83-2.93-2.87-5.23-6.26-6.91-10.17-1.68-3.9-2.52-8.08-2.52-12.53v-109.15h-42.3v-32.05Z" fill="#2566bc" stroke-width="0"/>
    <path d="M523.14,499.63c0-4.45.84-8.62,2.52-12.53,1.68-3.9,3.96-7.29,6.83-10.17,2.87-2.87,6.26-5.15,10.17-6.83s8.02-2.52,12.36-2.52h57.42c4.23,0,8.24.79,12.04,2.36,3.79,1.57,7.13,3.74,10,6.51,2.87,2.77,5.21,6.02,6.99,9.76s2.74,7.73,2.85,11.96v-30.58h32.05v211.15c0,4.44-.84,8.62-2.52,12.53s-3.96,7.29-6.83,10.17c-2.87,2.87-6.26,5.15-10.17,6.83-3.9,1.68-8.08,2.52-12.53,2.52h-101.18v-32.05h101.18v-44.57h-89.31c-4.34,0-8.46-.84-12.36-2.52s-7.29-3.96-10.17-6.83c-2.87-2.87-5.15-6.26-6.83-10.17-1.68-3.9-2.52-8.08-2.52-12.53v-102.48ZM644.33,602.11v-102.48h-89.31v102.48h89.31Z" fill="#484747" stroke-width="0"/>
    <path d="M729.74,467.58h31.88v141.2h89.31v-141.2h32.05v173.25h-32.05v-29.28c-.33,4.01-1.41,7.81-3.25,11.39-1.84,3.58-4.2,6.7-7.08,9.35-2.87,2.66-6.16,4.74-9.84,6.26-3.69,1.52-7.59,2.28-11.71,2.28h-57.42c-4.34,0-8.46-.84-12.36-2.52-3.9-1.68-7.29-3.96-10.17-6.83-2.87-2.87-5.15-6.26-6.83-10.17-1.68-3.9-2.52-8.08-2.52-12.53v-141.2Z" fill="#484747" stroke-width="0"/>
    <path d="M936.33,565.18c0-4.45.84-8.6,2.52-12.44,1.68-3.85,3.96-7.24,6.83-10.17s6.26-5.23,10.17-6.91c3.9-1.68,8.02-2.52,12.36-2.52h82.64v-33.51h-104.6v-32.05h104.6c4.44,0,8.62.84,12.53,2.52s7.29,3.96,10.17,6.83c2.87,2.87,5.15,6.26,6.83,10.17,1.68,3.9,2.52,8.08,2.52,12.53v141.2h-32.05v-29.28c-.33,4.01-1.41,7.81-3.25,11.39-1.84,3.58-4.2,6.7-7.08,9.35s-6.16,4.74-9.84,6.26c-3.69,1.52-7.59,2.28-11.71,2.28h-50.75c-4.34,0-8.46-.84-12.36-2.52-3.9-1.68-7.29-3.96-10.17-6.83s-5.15-6.26-6.83-10.17c-1.68-3.9-2.52-8.08-2.52-12.53v-43.6ZM968.22,608.78h82.64v-43.6h-82.64v43.6Z" fill="#484747" stroke-width="0"/>
    <path d="M1168.14,499.63v141.2h-31.88v-173.25h31.88v30.58c.21-4.23,1.19-8.22,2.93-11.96,1.73-3.74,4.04-6.99,6.91-9.76s6.21-4.94,10-6.51c3.79-1.57,7.86-2.36,12.2-2.36h34c4.44,0,8.6.84,12.44,2.52,3.85,1.68,7.24,3.96,10.17,6.83,2.93,2.87,5.23,6.26,6.91,10.17,1.68,3.9,2.52,8.08,2.52,12.53v29.28h-32.05v-29.28h-66.05Z" fill="#484747" stroke-width="0"/>
    <path d="M1306.09,499.63c0-4.45.84-8.62,2.52-12.53,1.68-3.9,3.96-7.29,6.83-10.17,2.87-2.87,6.26-5.15,10.17-6.83,3.9-1.68,8.02-2.52,12.36-2.52h89.31v-66.7h32.05v239.94h-32.05v-29.28c-.33,4.01-1.41,7.81-3.25,11.39-1.84,3.58-4.2,6.7-7.08,9.35s-6.16,4.74-9.84,6.26c-3.69,1.52-7.59,2.28-11.71,2.28h-57.42c-4.34,0-8.46-.84-12.36-2.52-3.9-1.68-7.29-3.96-10.17-6.83s-5.15-6.26-6.83-10.17-2.52-8.08-2.52-12.53v-109.15ZM1337.97,608.78h89.31v-109.15h-89.31v109.15Z" fill="#484747" stroke-width="0"/>
  </g>
  <path d="M822.55,280.85h-124.43c-9.81,0-17.77-7.95-17.77-17.77v-124.43c0-9.81,7.95-17.77,17.77-17.77h124.43c9.81,0,17.77,7.95,17.77,17.77v124.43c0,9.81-7.95,17.77-17.77,17.77ZM858.53,40.88h-178.18v39.67h165.78c18.89,0,34.2,15.31,34.2,34.2v171.9c0,18.89-15.31,34.2-34.2,34.2h-171.59c-18.89,0-34.2-15.31-34.2-34.2V40.88h-80.02v40.01h40.01v218.17c0,34.14,27.68,61.82,61.83,61.82h196.36c34.15,0,61.82-27.68,61.82-61.82V102.71c0-34.14-27.68-61.82-61.82-61.82Z" fill="#2566bc" stroke-width="0"/>
</svg>